<?xml version="1.0" standalone="no"?>
<!DOCTYPE svg PUBLIC "-//W3C//DTD SVG 20010904//EN"
 "http://www.w3.org/TR/2001/REC-SVG-20010904/DTD/svg10.dtd">
<svg version="1.0" xmlns="http://www.w3.org/2000/svg"
 width="438.000000pt" height="428.000000pt" viewBox="0 0 438.000000 428.000000"
 preserveAspectRatio="xMidYMid meet">
<metadata>
Created by potrace 1.16, written by Peter Selinger 2001-2019
</metadata>
<g transform="translate(0.000000,428.000000) scale(0.100000,-0.100000)"
fill="#000000" stroke="none">
<path d="M1970 4129 c-437 -45 -856 -242 -1179 -553 -623 -601 -787 -1537
-407 -2311 100 -204 204 -352 360 -514 601 -623 1537 -787 2311 -407 629 309
1046 909 1115 1605 52 524 -115 1065 -452 1466 -193 230 -398 391 -663 521
-333 164 -712 231 -1085 193z m495 -675 c343 -49 610 -192 692 -370 23 -51 24
-61 20 -201 -2 -82 -7 -158 -11 -170 -7 -19 0 -25 66 -58 95 -47 186 -120 227
-181 51 -77 64 -138 59 -278 -4 -115 -6 -124 -38 -184 -41 -77 -113 -144 -219
-203 -71 -40 -79 -48 -106 -105 l-30 -62 25 -48 c23 -44 25 -62 28 -196 3
-140 2 -151 -21 -202 -82 -178 -342 -317 -697 -372 -140 -22 -420 -22 -560 0
-355 55 -615 194 -697 372 -23 51 -24 62 -21 201 3 132 6 153 27 196 l24 49
-24 41 c-22 39 -24 52 -24 197 0 85 4 167 8 182 8 26 6 28 -60 61 -155 79
-258 188 -284 301 -7 33 -10 98 -7 167 4 92 9 124 28 164 34 71 139 172 231
219 70 37 77 43 93 87 104 295 694 477 1271 393z"/>
<path d="M1985 3384 c-268 -38 -426 -90 -562 -182 -99 -67 -163 -156 -163
-227 0 -74 64 -159 171 -231 370 -245 1128 -245 1498 0 79 53 125 102 152 160
23 52 23 90 0 142 -65 142 -287 265 -577 319 -86 16 -447 29 -519 19z m275
-102 c0 -29 1 -29 86 -41 48 -7 105 -19 128 -28 54 -22 116 -63 116 -77 0 -7
-40 -18 -101 -28 l-100 -16 -43 28 c-93 63 -306 55 -306 -11 0 -29 46 -45 221
-74 184 -30 255 -48 308 -75 154 -78 43 -219 -191 -245 -120 -14 -118 -12
-118 -50 l0 -35 -80 0 -80 0 0 35 c0 31 -3 35 -32 39 -152 21 -190 30 -245 57
-55 26 -111 75 -99 86 2 2 55 10 117 17 l114 13 20 -23 c28 -33 84 -53 167
-60 124 -11 232 25 214 71 -9 23 -45 34 -235 65 -200 33 -259 49 -306 82 -66
45 -71 96 -16 148 46 44 103 65 217 81 83 12 84 12 84 41 l0 28 80 0 80 0 0
-28z"/>
<path d="M1125 2891 c-73 -41 -150 -115 -174 -164 -90 -186 132 -379 533 -466
265 -58 634 -42 865 37 l55 19 -165 -5 c-375 -10 -691 68 -896 222 -63 47
-122 118 -144 172 -7 16 -15 71 -18 121 l-6 93 -50 -29z"/>
<path d="M3060 2569 c-30 -27 -91 -69 -136 -94 -71 -40 -83 -51 -92 -83 -30
-98 -134 -197 -287 -272 -144 -70 -237 -95 -515 -138 l-55 -8 60 -18 c156 -47
253 -59 465 -60 125 0 236 4 285 12 261 43 469 133 575 248 72 78 89 158 51
233 -29 56 -128 142 -217 188 l-79 41 -55 -49z"/>
<path d="M1271 2023 c-15 -54 -14 -72 12 -128 62 -131 265 -245 547 -307 93
-20 132 -22 350 -22 257 0 350 11 497 61 l52 18 -217 0 c-311 1 -486 36 -702
142 -99 49 -126 68 -192 135 -43 43 -86 78 -95 78 -19 0 -197 44 -225 55 -13
5 -19 -2 -27 -32z"/>
<path d="M1274 1525 c-29 -76 -2 -146 86 -228 108 -100 295 -179 520 -218 161
-29 439 -29 600 0 298 52 531 176 597 316 27 59 28 87 5 138 l-17 38 -55 -42
c-348 -262 -1092 -298 -1540 -74 -41 20 -98 55 -127 76 l-52 39 -17 -45z"/>
</g>
</svg>
